<?xml version="1.0" encoding="utf-8"?>
<svg version="1.1" xmlns="http://www.w3.org/2000/svg" xmlns:xlink="http://www.w3.org/1999/xlink" x="0px" y="0px" viewBox="0 0 400 393.1" style="enable-background:new 0 0 400 393.1;" xml:space="preserve">
    <style type="text/css">
        .st0{fill-rule:evenodd;clip-rule:evenodd;fill:#2CB464;}
        .st1{fill-rule:evenodd;clip-rule:evenodd;fill:#EC141C;}
        .obj1{animation: obj1 1s linear forwards;transform: translateY(198px) scaleY(0);}
        @keyframes obj1{from{transform: translateY(198px) scaleY(0);}to{transform: translateY(0) scaleY(1);}}
        .obj2{animation: obj2 .7s linear forwards;transform: translateY(174px) scaleY(0);}
        @keyframes obj2{from{transform: translateY(174px) scaleY(0);}to{transform: translateY(0) scaleY(1);}}
        .obj3{animation: obj3 .5s linear forwards;transform: translateY(147px) scaleY(1);}
        @keyframes obj3{from{transform: translateY(147px) scaleY(0);}to{transform: translateY(0px) scaleY(1);}}
        .obj4{animation: obj4 .8s linear forwards;transform: translateY(78px) scaleY(1);}
        @keyframes obj4{from{transform: translateY(78px) scaleY(0);}to{transform: translateY(0px) scaleY(1);}}
        .obj5{animation: obj4 .4s linear forwards;transform: translateY(78px) scaleY(1);}
        @keyframes obj5{from{transform: translateY(78px) scaleY(0);}to{transform: translateY(0px) scaleY(1);}}
    </style>
    <path class="st0 obj1" d="M265.5,153.1c0,128.8,0.1,153.2,0.5,153.6c0.4,0.3,7,0.4,24.1,0.3l23.6-0.1l0.1-153.5L313.9,0h-48.4V153.1"/>
    <path class="st0 obj2" d="M357.1,24.3l-1.8,0.2v151l22.3,0.1l22.3,0.1V24l-20.6,0.1C368.1,24.1,358.1,24.2,357.1,24.3"/>
    <path class="st0 obj3" d="M86.4,52.2c-0.4,0.4-0.3,184.7,0.1,185.3c0.2,0.4,5.3,0.5,24.1,0.4l23.8-0.1V52.1L110.5,52 C97.4,52,86.5,52,86.4,52.2"/>
    <path class="st1 obj4" d="M176.3,121.2c-0.4,0.4-0.5,31.2-0.5,136.3v135.8h48.4V257.5c0-105.1-0.1-135.9-0.5-136.3 C223,120.5,177,120.5,176.3,121.2"/>
    <path class="st1 obj5" d="M0,227.7V321l22.3-0.1l22.3-0.1l0.1-92.6c0.1-68.1,0-92.7-0.3-93.1c-0.4-0.4-4.4-0.5-22.4-0.5H0V227.7"/>
</svg>