<?xml version="1.0" encoding="utf-8"?>
<!-- Generator: Adobe Illustrator 20.0.0, SVG Export Plug-In . SVG Version: 6.00 Build 0)  -->
<svg version="1.1" id="Слой_1" xmlns="http://www.w3.org/2000/svg" xmlns:xlink="http://www.w3.org/1999/xlink" x="0px" y="0px"
	 viewBox="0 0 100 100" style="enable-background:new 0 0 100 100;" xml:space="preserve">
<g>
	<g>
		<path d="M13.9,49.9c0,0,0,0.9,0.1,2.7c0,0.4,0,1,0.1,1.5c0.1,0.5,0.2,1,0.2,1.6c0.1,0.6,0.1,1.2,0.3,1.9
			c0.2,0.7,0.3,1.4,0.5,2.1c0.8,3,2.1,6.6,4.5,10.2c2.3,3.6,5.7,7.4,10.1,10.4c4.4,3,10,5.3,16.1,6.1c0.8,0.1,1.5,0.1,2.3,0.2
			l1.2,0.1l0.6,0c0.1,0-0.1,0,0,0l0.1,0l0.2,0l0.3,0c1.7-0.1,3.4-0.1,4.9-0.4c0.8-0.1,1.6-0.2,2.4-0.4c0.8-0.2,1.6-0.4,2.4-0.6
			c0.8-0.2,1.6-0.5,2.4-0.8l1.2-0.4l0.6-0.2l0.6-0.3c0.8-0.4,1.5-0.7,2.3-1.1c0.8-0.4,1.5-0.9,2.2-1.3l1.1-0.7l1.1-0.8
			c0.7-0.5,1.4-1,2.1-1.6c2.7-2.2,5.1-4.9,7.2-7.8c2-3,3.6-6.3,4.7-9.7c1.1-3.5,1.6-7.1,1.7-10.8c-0.1-1.7-0.1-3.8-0.4-5.5l-0.2-1.3
			l-0.1-0.7l-0.2-0.7l-0.7-2.7c-1.1-3.5-2.6-6.9-4.5-9.9c-2-3-4.4-5.8-7.1-8.1c-0.7-0.6-1.4-1.1-2.1-1.6L71,18.7L69.9,18
			c-0.8-0.5-1.5-1-2.3-1.4c-0.8-0.4-1.6-0.8-2.3-1.2c-3.2-1.4-6.5-2.5-9.8-2.9c-1.6-0.3-3.3-0.3-5-0.5L50,12l-0.6,0l-1.2,0
			c-0.8,0.1-1.7,0-2.4,0.1c-6.3,0.7-12.2,2.9-16.9,6c-4.7,3.1-8.3,7-10.9,10.8c-2.6,3.8-4.1,7.6-5,10.8c-0.2,0.8-0.4,1.6-0.6,2.3
			c-0.2,0.7-0.2,1.4-0.4,2c-0.1,0.6-0.2,1.2-0.3,1.8c-0.1,0.5-0.1,1-0.1,1.5c-0.1,1.8-0.2,2.7-0.2,2.7L13.9,49.9z M11.4,50
			c0,0,0-0.9,0.1-2.7c0-0.4,0-0.9,0.1-1.5c0.1-0.5,0.2-1.1,0.3-1.8c0.1-0.6,0.2-1.3,0.3-2.1c0.2-0.7,0.4-1.5,0.6-2.3
			c0.9-3.2,2.2-7.1,4.8-10.9c2.5-3.9,6.1-7.9,10.8-11.1c4.8-3.2,10.6-5.6,17.2-6.5c0.8-0.1,1.6-0.1,2.5-0.2l1.2-0.1l0.6,0
			c0.3,0,0.4,0,0.7,0c1.7,0.1,3.4,0.1,5.1,0.4c3.5,0.4,6.9,1.5,10.2,2.8c0.8,0.4,1.6,0.8,2.5,1.2c0.8,0.4,1.6,0.9,2.4,1.4l1.2,0.7
			l1.1,0.8c0.7,0.6,1.5,1.1,2.2,1.7c2.9,2.4,5.4,5.2,7.6,8.4c2.1,3.2,3.8,6.7,5,10.4l0.8,2.8L89,42l0.1,0.7l0.2,1.5
			c0.2,1,0.3,2,0.4,2.9l0.2,2.9c0,3.9-0.5,7.8-1.6,11.6c-1.2,3.7-2.8,7.3-4.9,10.6c-2.2,3.2-4.7,6.1-7.6,8.6
			c-0.7,0.6-1.5,1.2-2.2,1.8l-1.1,0.9l-1.2,0.7c-0.8,0.5-1.6,1-2.4,1.4c-0.8,0.4-1.7,0.8-2.5,1.2c-3.4,1.5-6.8,2.6-10.5,3.1
			c-1.9,0.4-3.5,0.4-5.2,0.5l-0.3,0l-0.2,0l-0.1,0c0,0-0.2,0-0.2,0l-0.7,0L48,90.4c-0.9-0.1-1.7,0-2.6-0.2c-6.8-0.7-13-3.1-18-6.4
			c-5-3.3-8.8-7.4-11.6-11.5c-2.8-4-4.3-8.1-5.3-11.5c-0.2-0.9-0.4-1.7-0.6-2.4c-0.2-0.8-0.3-1.5-0.4-2.2c-0.1-0.7-0.2-1.3-0.3-1.9
			c-0.1-0.6-0.1-1.1-0.1-1.5c-0.1-1.8-0.2-2.7-0.2-2.7L11.4,50z" fill="#fff"/>
		<g>
			<circle class="st0" cx="11.4" cy="50" r="2.4" fill="#fff"/>
		</g>

				<animateTransform id="anskljdf"
		 attributeName="transform"
		 attributeType="XML"
		 type="rotate"
		 from="0 50 50"
		 to="360 50 50"
		 dur="5s"
		 repeatCount="indefinite"/>
	</g>
</g>
<g>
	<linearGradient id="SVGID_1_" gradientUnits="userSpaceOnUse" x1="0.9773" y1="44" x2="99.0227" y2="44">
		<stop  offset="0" style="stop-color:#764C01"/>
		<stop  offset="0.356" style="stop-color:#A67315"/>
		<stop  offset="0.6747" style="stop-color:#FFCA5E"/>
		<stop  offset="1" style="stop-color:#FFEDD1"/>
	</linearGradient>
	<path id="cr" stroke-dasharray="200" d="M4,56.7h27.6c0,0-3-12-4.6-18.4c0,0,16.1,11.5,16.1,11.5L50,31.3l6.9,18.4L73,38.2l-4.6,18.4H96" fill-rule="evenodd" clip-rule="evenodd" fill="none" stroke="url(#SVGID_1_)" stroke-width="5" stroke-linecap="round" stroke-linejoin="round" stroke-miterlimit="10" />

	<animate xlink:href="#cr" attributeName="stroke-dashoffset" attributeType="CSS" begin="0s" repeatCount="indefinite" keyTimes="0; 0.5; 1" calcMode="spline" keySplines=".57,.29,.27,.73; .57,.29,.27,.73" values="200; 0; -200" dur="5s" />
</g>
</svg>
